# Blender v2.80 (sub 75) OBJ File: ''
# www.blender.org
mtllib pavement.mtl
o Cube.001
v 84.026627 0.000014 -84.026627
v -0.000003 0.000414 -34.167912
v 6.665828 0.000414 -33.511387
v 33.511391 0.000412 6.665839
v 34.167919 -17.751610 -0.000003
v 33.511391 -17.751608 6.665827
v -0.000013 0.000411 34.167931
v -6.665846 0.000411 33.511402
v -84.026627 -0.000014 84.026627
v 24.160368 0.000411 24.160381
v 28.409590 -17.751610 18.982679
v 24.160368 -17.751610 24.160370
v 28.409590 0.000411 18.982693
v 31.567043 -17.751608 13.075494
v -33.511391 0.000412 -6.665856
v -34.167927 -17.751610 -0.000034
v -33.511387 -17.751608 -6.665868
v 33.511391 0.000412 -6.665818
v 31.567043 -17.751608 -13.075497
v 33.511391 -17.751608 -6.665830
v 34.167919 0.000412 0.000008
v 28.409590 -17.751606 -18.982681
v 24.160368 0.000414 -24.160357
v 24.160368 -17.751610 -24.160372
v -6.665781 -17.751608 -33.511406
v -0.000003 -17.751608 -34.167923
v -0.000013 -17.751612 34.167923
v -6.665846 -17.751612 33.511391
v -28.409565 -17.751606 -18.982719
v -31.567032 0.000412 -13.075522
v -31.567032 -17.751608 -13.075534
v 6.665821 -17.751612 33.511395
v -6.665781 0.000414 -33.511395
v -13.075456 -17.751608 -31.567062
v 18.982679 -17.751610 -28.409588
v -18.982698 0.000411 28.409590
v -13.075512 -17.751612 31.567034
v -18.982698 -17.751610 28.409580
v 18.982679 0.000414 -28.409580
v 13.075494 -17.751608 -31.567045
v 18.982679 0.000411 28.409599
v 18.982679 -17.751610 28.409590
v -18.982641 0.000414 -28.409607
v -24.160337 -17.751606 -24.160398
v -18.982641 -17.751610 -28.409618
v 13.075490 0.000411 31.567057
v 13.075490 -17.751612 31.567043
v -24.160389 0.000411 24.160370
v -24.160389 -17.751610 24.160357
v -31.567057 0.000412 13.075484
v -28.409601 -17.751610 18.982658
v -31.567057 -17.751608 13.075474
v 6.665828 -17.751608 -33.511395
v 31.567043 0.000412 -13.075484
v -34.167927 0.000412 -0.000023
v -33.511402 -17.751608 6.665802
v 31.567043 0.000412 13.075505
v -13.075456 0.000414 -31.567051
v 13.075498 0.000414 -31.567034
v 6.665821 0.000411 33.511402
v -33.511406 0.000412 6.665814
v -24.160337 0.000414 -24.160385
v -28.409605 0.000411 18.982670
v -84.026627 0.000014 -84.026627
v -28.409569 0.000413 -18.982706
v 28.409590 0.000413 -18.982668
v 84.026627 -0.000014 84.026627
v -13.075512 0.000411 31.567047
vt 39.354866 39.325470
vt 19.686697 27.655016
vt 21.246973 27.501343
vt 44.162468 -0.402367
vt 40.007240 0.468672
vt 40.007240 -0.402367
vt 19.686691 11.659603
vt 18.126415 11.813279
vt 0.018530 -0.010845
vt 44.162468 20.734356
vt 40.007240 22.037956
vt 40.007240 20.734358
vt 44.162468 22.037952
vt 40.007240 23.146574
vt 44.162468 32.833176
vt 40.007240 34.281654
vt 40.007240 32.833172
vt 44.162468 1.577288
vt 40.007233 2.880886
vt 40.007240 1.577290
vt 44.162468 0.468668
vt 40.007240 4.329367
vt 44.162468 5.867067
vt 40.007233 5.867069
vt 44.162468 11.724672
vt 40.007240 12.833283
vt 40.007233 11.724673
vt 44.162468 13.194171
vt 40.007240 14.642653
vt 40.007233 13.194172
vt 40.007240 29.727650
vt 44.162468 31.295475
vt 40.007240 31.295475
vt 44.162468 14.642651
vt 40.007240 16.180353
vt 44.162468 24.329250
vt 40.007233 25.437870
vt 40.007233 24.329248
vt 40.007233 7.434893
vt 44.162468 40.655304
vt 40.007240 42.103783
vt 40.007240 40.655304
vt 44.162468 7.434893
vt 40.007233 8.972593
vt 44.162468 19.285875
vt 40.007240 19.285877
vt 44.162468 26.741468
vt 40.007240 28.189949
vt 40.007233 26.741467
vt 44.162468 17.748177
vt 40.007240 17.748178
vt 44.162468 39.117607
vt 40.007240 39.117607
vt 44.162468 36.012081
vt 40.007240 37.549782
vt 40.007240 36.012081
vt 44.162468 10.421074
vt 40.007233 10.421074
vt 44.162468 2.880886
vt 2.094343 44.133076
vt 0.790745 39.977852
vt 2.094343 39.977852
vt 44.162468 23.146574
vt 40.007240 24.017609
vt 44.162468 43.407387
vt 40.007240 43.407387
vt 44.162468 25.437870
vt 44.162468 8.972592
vt 44.162468 16.180351
vt 44.162460 34.563602
vt 40.007233 34.563602
vt 44.162468 28.189949
vt 44.162468 37.549782
vt 0.018539 39.325478
vt 11.688990 19.657320
vt 11.842667 21.217594
vt 12.297784 22.717911
vt 27.530727 21.217583
vt 27.684401 19.657309
vt 27.075615 22.717897
vt 13.036852 24.100609
vt 14.031472 25.312550
vt 26.336548 24.100594
vt 25.341927 25.312540
vt 15.243420 26.307169
vt 16.626118 27.046232
vt 24.129986 26.307159
vt 22.747288 27.046225
vt 18.126434 27.501345
vt 39.354851 -0.010857
vt 27.530725 18.097034
vt 27.075613 16.596718
vt 11.842662 18.097044
vt 26.336542 15.214020
vt 12.297776 16.596729
vt 13.036842 15.214029
vt 25.341927 14.002076
vt 24.129982 13.007460
vt 14.031457 14.002081
vt 15.243402 13.007464
vt 22.747284 12.268391
vt 21.246967 11.813279
vt 16.626102 12.268397
vt 44.162468 34.281658
vt 44.162468 4.329367
vt 44.162468 12.833282
vt 44.162468 29.727652
vt 44.162468 42.103786
vt 0.751638 44.133076
vt -0.551960 44.133076
vt -0.551960 39.977852
vt 44.162468 24.017609
vn 0.0000 1.0000 -0.0000
vn -0.9952 0.0000 -0.0980
vn -0.7730 0.0000 -0.6344
vn -0.8819 0.0000 -0.4714
vn 0.9952 0.0000 0.0980
vn -0.9569 -0.0000 0.2903
vn -0.9952 -0.0000 0.0980
vn -0.7730 -0.0000 0.6344
vn 0.0980 -0.0000 0.9952
vn 0.0980 0.0000 -0.9952
vn 0.8819 -0.0000 0.4714
vn -0.0980 0.0000 -0.9952
vn 0.2903 -0.0000 0.9569
vn -0.6344 -0.0000 0.7730
vn 0.4714 0.0000 -0.8819
vn -0.4714 -0.0000 0.8819
vn -0.6344 0.0000 -0.7730
vn 0.6344 -0.0000 0.7730
vn 0.9569 0.0000 0.2903
vn -0.4714 0.0000 -0.8819
vn 0.6344 0.0000 -0.7730
vn 0.8819 0.0000 -0.4714
vn -0.0980 -0.0000 0.9952
vn -0.8819 -0.0000 0.4714
vn 0.9952 0.0000 -0.0980
vn -0.9569 0.0000 -0.2903
vn 0.2903 0.0000 -0.9569
vn 0.4714 -0.0000 0.8819
vn -0.2903 -0.0000 0.9569
vn -0.2903 0.0000 -0.9569
vn 0.9569 0.0000 -0.2903
vn 0.7730 -0.0000 0.6344
vn 0.7730 0.0000 -0.6344
usemtl Material.001
s 1
f 1/1/1 2/2/1 3/3/1
f 4/4/2 5/5/2 6/6/2
f 7/7/1 8/8/1 9/9/1
f 10/10/3 11/11/3 12/12/3
f 13/13/4 14/14/4 11/11/4
f 15/15/5 16/16/5 17/17/5
f 18/18/6 19/19/6 20/20/6
f 21/21/7 20/20/7 5/5/7
f 22/22/8 23/23/8 24/24/8
f 2/25/9 25/26/9 26/27/9
f 8/28/10 27/29/10 28/30/10
f 29/31/11 30/32/11 31/33/11
f 7/34/12 32/35/12 27/29/12
f 33/36/13 34/37/13 25/38/13
f 23/23/14 35/39/14 24/24/14
f 36/40/15 37/41/15 38/42/15
f 39/43/16 40/44/16 35/39/16
f 41/45/17 12/12/17 42/46/17
f 43/47/18 44/48/18 45/49/18
f 30/32/19 17/17/19 31/33/19
f 46/50/20 42/46/20 47/51/20
f 48/52/21 38/42/21 49/53/21
f 50/54/22 51/55/22 52/56/22
f 3/57/23 26/27/23 53/58/23
f 54/59/24 22/22/24 19/19/24
f 55/60/25 56/61/25 16/62/25
f 57/63/26 6/64/26 14/14/26
f 37/41/27 8/65/27 28/66/27
f 58/67/28 45/49/28 34/37/28
f 59/68/29 53/58/29 40/44/29
f 60/69/30 47/51/30 32/35/30
f 61/70/31 52/56/31 56/71/31
f 62/72/32 29/31/32 44/48/32
f 63/73/33 49/53/33 51/55/33
f 64/74/1 55/75/1 15/76/1
f 64/74/1 15/76/1 30/77/1
f 18/78/1 21/79/1 1/1/1
f 54/80/1 18/78/1 1/1/1
f 64/74/1 30/77/1 65/81/1
f 64/74/1 65/81/1 62/82/1
f 66/83/1 54/80/1 1/1/1
f 23/84/1 66/83/1 1/1/1
f 1/1/1 64/74/1 2/2/1
f 64/74/1 62/82/1 43/85/1
f 64/74/1 43/85/1 58/86/1
f 39/87/1 23/84/1 1/1/1
f 59/88/1 39/87/1 1/1/1
f 64/74/1 58/86/1 33/89/1
f 64/74/1 33/89/1 2/2/1
f 3/3/1 59/88/1 1/1/1
f 4/4/2 21/21/2 5/5/2
f 1/1/1 21/79/1 67/90/1
f 21/79/1 4/91/1 67/90/1
f 4/91/1 57/92/1 67/90/1
f 55/75/1 64/74/1 9/9/1
f 61/93/1 55/75/1 9/9/1
f 67/90/1 57/92/1 13/94/1
f 50/95/1 61/93/1 9/9/1
f 63/96/1 50/95/1 9/9/1
f 67/90/1 13/94/1 10/97/1
f 67/90/1 10/97/1 41/98/1
f 48/99/1 63/96/1 9/9/1
f 36/100/1 48/99/1 9/9/1
f 9/9/1 67/90/1 7/7/1
f 67/90/1 41/98/1 46/101/1
f 67/90/1 46/101/1 60/102/1
f 68/103/1 36/100/1 9/9/1
f 8/8/1 68/103/1 9/9/1
f 67/90/1 60/102/1 7/7/1
f 10/10/3 13/13/3 11/11/3
f 13/13/4 57/63/4 14/14/4
f 15/15/5 55/104/5 16/16/5
f 18/18/6 54/59/6 19/19/6
f 21/21/7 18/18/7 20/20/7
f 22/22/8 66/105/8 23/23/8
f 2/25/9 33/106/9 25/26/9
f 8/28/10 7/34/10 27/29/10
f 29/31/11 65/107/11 30/32/11
f 7/34/12 60/69/12 32/35/12
f 33/36/13 58/67/13 34/37/13
f 23/23/14 39/43/14 35/39/14
f 36/40/15 68/108/15 37/41/15
f 39/43/16 59/68/16 40/44/16
f 41/45/17 10/10/17 12/12/17
f 43/47/18 62/72/18 44/48/18
f 30/32/19 15/15/19 17/17/19
f 46/50/20 41/45/20 42/46/20
f 48/52/21 36/40/21 38/42/21
f 50/54/22 63/73/22 51/55/22
f 3/57/23 2/25/23 26/27/23
f 54/59/24 66/105/24 22/22/24
f 55/109/25 61/110/25 56/111/25
f 57/63/26 4/112/26 6/64/26
f 37/41/27 68/108/27 8/65/27
f 58/67/28 43/47/28 45/49/28
f 59/68/29 3/57/29 53/58/29
f 60/69/30 46/50/30 47/51/30
f 61/70/31 50/54/31 52/56/31
f 62/72/32 65/107/32 29/31/32
f 63/73/33 48/52/33 49/53/33
