# Blender v2.80 (sub 75) OBJ File: ''
# www.blender.org
mtllib russianULOW.mtl
o lightmap3_lightmap3.001
v -0.831046 0.517901 0.341912
v 0.718670 0.517901 -0.326533
v 0.798083 0.517901 0.341912
v 0.827053 0.517901 -0.215074
v -0.831046 -0.033281 -0.326533
v -0.831046 -0.033281 0.341912
v -0.831046 0.517901 -0.326820
v 0.798083 -0.033281 0.341912
v 0.827053 -0.033281 -0.215074
v 0.718670 -0.033281 -0.326533
vt 0.505224 0.974224
vt 0.505224 0.580388
vt 0.458978 0.974267
vt 0.458978 0.580431
vt 0.508803 0.581800
vt 0.455459 0.581800
vt 0.508803 0.974943
vt 0.455459 0.974943
vt 0.512894 0.577807
vt 0.454103 0.577807
vt 0.512894 0.975105
vt 0.454103 0.975105
vt 0.749038 0.651385
vt 0.749038 0.747829
vt 0.791371 0.747829
vt 0.791371 0.651385
vt 0.749038 0.610453
vt 0.749038 0.650025
vt 0.791371 0.610436
vt 0.791371 0.650025
vt 0.987859 0.288097
vt 0.831148 0.288097
vt 0.987792 0.469034
vt 0.961672 0.481688
vt 0.831148 0.478306
vn 0.7169 0.0000 -0.6971
vn 0.0000 0.0000 -1.0000
vn 0.0002 -0.0005 -1.0000
vn 0.9987 -0.0000 0.0519
vn 0.0000 -0.0000 1.0000
vn -1.0000 0.0000 0.0000
vn -0.0000 1.0000 0.0000
usemtl 20_-_Default.001
s off
f 4/1/1 9/2/1 2/3/1
f 10/4/1 2/3/1 9/2/1
f 10/5/2 5/6/2 2/7/2
f 7/8/3 2/7/3 5/6/3
f 8/9/4 9/10/4 3/11/4
f 9/10/4 4/12/4 3/11/4
f 6/13/5 8/14/5 3/15/5
f 3/15/5 1/16/5 6/13/5
f 5/17/6 6/18/6 7/19/6
f 1/20/6 7/19/6 6/18/6
f 7/21/7 1/22/7 2/23/7
f 4/24/7 2/23/7 1/22/7
f 3/25/7 4/24/7 1/22/7
