# Blender v2.80 (sub 75) OBJ File: ''
# www.blender.org
mtllib ULOWx3.mtl
o lightmap3_lightmap3.001
v -0.926637 0.517901 -0.225541
v -0.926637 -0.033281 -0.225541
v -1.009477 0.517901 -0.357098
v -1.009477 -0.033281 -0.357098
v -2.525328 -0.033281 -0.679302
v -2.525269 0.517901 -0.679583
v -1.070777 -0.033281 0.313251
v -1.070777 0.517901 0.313251
v -2.664306 -0.033281 -0.025464
v -2.664306 0.517901 -0.025464
v 0.827053 0.517901 -0.215074
v 0.827053 -0.033281 -0.215074
v 0.718670 0.517901 -0.326533
v 0.718670 -0.033281 -0.326533
v -0.831046 -0.033281 -0.326533
v -0.831046 0.517901 -0.326820
v 0.798083 -0.033281 0.341912
v 0.798083 0.517901 0.341912
v -0.831046 -0.033281 0.341912
v -0.831046 0.517901 0.341912
v 2.532750 0.517901 -0.568879
v 2.532750 -0.033281 -0.568879
v 2.403562 0.517901 -0.655369
v 2.403562 -0.033281 -0.655369
v 0.887711 -0.033281 -0.333164
v 0.887651 0.517901 -0.333445
v 2.620217 -0.033281 -0.018042
v 2.620217 0.517901 -0.018042
v 1.026688 -0.033281 0.320673
v 1.026688 0.517901 0.320673
vt 0.505224 0.974224
vt 0.505224 0.580388
vt 0.458978 0.974267
vt 0.458978 0.580431
vt 0.508803 0.581800
vt 0.455459 0.581800
vt 0.508803 0.974943
vt 0.455459 0.974943
vt 0.512894 0.577807
vt 0.454103 0.577807
vt 0.512894 0.975105
vt 0.454103 0.975105
vt 0.749038 0.651385
vt 0.749038 0.747829
vt 0.791371 0.747829
vt 0.791371 0.651385
vt 0.749038 0.610453
vt 0.749038 0.650025
vt 0.791371 0.610436
vt 0.791371 0.650025
vt 0.987859 0.288097
vt 0.831148 0.288097
vt 0.987792 0.469034
vt 0.961672 0.481688
vt 0.831148 0.478306
vt 0.505224 0.974224
vt 0.505224 0.580388
vt 0.458978 0.974267
vt 0.458978 0.580431
vt 0.508803 0.581800
vt 0.455459 0.581800
vt 0.508803 0.974943
vt 0.455459 0.974943
vt 0.512894 0.577807
vt 0.454103 0.577807
vt 0.512894 0.975105
vt 0.454103 0.975105
vt 0.749038 0.651385
vt 0.749038 0.747829
vt 0.791371 0.747829
vt 0.791371 0.651385
vt 0.749038 0.610453
vt 0.749038 0.650025
vt 0.791371 0.610436
vt 0.791371 0.650025
vt 0.987859 0.288097
vt 0.831148 0.288097
vt 0.987792 0.469034
vt 0.961672 0.481688
vt 0.831148 0.478306
vt 0.505224 0.974224
vt 0.505224 0.580388
vt 0.458978 0.974267
vt 0.458978 0.580431
vt 0.508803 0.581800
vt 0.455459 0.581800
vt 0.508803 0.974943
vt 0.455459 0.974943
vt 0.512894 0.577807
vt 0.454103 0.577807
vt 0.512894 0.975105
vt 0.454103 0.975105
vt 0.749038 0.651385
vt 0.749038 0.747829
vt 0.791371 0.747829
vt 0.791371 0.651385
vt 0.749038 0.610453
vt 0.749038 0.650025
vt 0.791371 0.610436
vt 0.791371 0.650025
vt 0.987859 0.288097
vt 0.831148 0.288097
vt 0.987792 0.469034
vt 0.961672 0.481688
vt 0.831148 0.478306
vn 0.8462 0.0000 -0.5329
vn 0.2079 0.0000 -0.9781
vn 0.2081 -0.0005 -0.9781
vn 0.9660 0.0000 0.2584
vn -0.2079 -0.0000 0.9781
vn -0.9781 0.0000 -0.2079
vn -0.0000 1.0000 0.0000
vn 0.7169 0.0000 -0.6971
vn 0.0000 0.0000 -1.0000
vn 0.0002 -0.0005 -1.0000
vn 0.9987 -0.0000 0.0519
vn 0.0000 -0.0000 1.0000
vn -1.0000 0.0000 0.0000
vn 0.5563 0.0000 -0.8310
vn -0.2079 0.0000 -0.9781
vn -0.2077 -0.0005 -0.9782
vn 0.9876 0.0000 -0.1568
vn 0.2079 -0.0000 0.9781
vn -0.9781 0.0000 0.2079
usemtl 20_-_Default.001
s 1
f 1/1/1 2/2/1 3/3/1
f 4/4/1 3/3/1 2/2/1
f 4/5/2 5/6/2 3/7/2
f 6/8/3 3/7/3 5/6/3
f 7/9/4 2/10/4 8/11/4
f 2/10/4 1/12/4 8/11/4
f 9/13/5 7/14/5 8/15/5
f 8/15/5 10/16/5 9/13/5
f 5/17/6 9/18/6 6/19/6
f 10/20/6 6/19/6 9/18/6
f 6/21/7 10/22/7 3/23/7
f 1/24/7 3/23/7 10/22/7
f 8/25/7 1/24/7 10/22/7
f 11/26/8 12/27/8 13/28/8
f 14/29/8 13/28/8 12/27/8
f 14/30/9 15/31/9 13/32/9
f 16/33/10 13/32/10 15/31/10
f 17/34/11 12/35/11 18/36/11
f 12/35/11 11/37/11 18/36/11
f 19/38/12 17/39/12 18/40/12
f 18/40/12 20/41/12 19/38/12
f 15/42/13 19/43/13 16/44/13
f 20/45/13 16/44/13 19/43/13
f 16/46/7 20/47/7 13/48/7
f 11/49/7 13/48/7 20/47/7
f 18/50/7 11/49/7 20/47/7
f 21/51/14 22/52/14 23/53/14
f 24/54/14 23/53/14 22/52/14
f 24/55/15 25/56/15 23/57/15
f 26/58/16 23/57/16 25/56/16
f 27/59/17 22/60/17 28/61/17
f 22/60/17 21/62/17 28/61/17
f 29/63/18 27/64/18 28/65/18
f 28/65/18 30/66/18 29/63/18
f 25/67/19 29/68/19 26/69/19
f 30/70/19 26/69/19 29/68/19
f 26/71/7 30/72/7 23/73/7
f 21/74/7 23/73/7 30/72/7
f 28/75/7 21/74/7 30/72/7
